<svg xmlns="http://www.w3.org/2000/svg" viewBox="0 0 32 32" width="32" height="32">
  <!-- Fondo circular -->
  <circle cx="16" cy="16" r="16" fill="#1e40af"/>
  
  <!-- Laptop base -->
  <rect x="8" y="20" width="16" height="8" rx="1" fill="#374151"/>
  <rect x="9" y="21" width="14" height="6" rx="0.5" fill="#1f2937"/>
  
  <!-- Laptop screen -->
  <rect x="10" y="12" width="12" height="9" rx="0.5" fill="#111827"/>
  <rect x="10.5" y="12.5" width="11" height="8" rx="0.3" fill="#1f2937"/>
  
  <!-- Code on screen -->
  <rect x="11" y="14" width="2" height="1" fill="#3b82f6"/>
  <rect x="13.5" y="14" width="3" height="1" fill="#10b981"/>
  <rect x="11" y="15.5" width="4" height="1" fill="#f59e0b"/>
  <rect x="15.5" y="15.5" width="2" height="1" fill="#ef4444"/>
  <rect x="11" y="17" width="3" height="1" fill="#8b5cf6"/>
  <rect x="15" y="17" width="2.5" height="1" fill="#06b6d4"/>
  
  <!-- Developer head -->
  <circle cx="16" cy="8" r="3" fill="#fbbf24"/>
  
  <!-- Hair -->
  <path d="M13.5 6.5 C13 5, 15 4, 17 4 C19 4, 21 5, 18.5 6.5" fill="#dc2626"/>
  
  <!-- Eyes -->
  <circle cx="14.5" cy="7.5" r="0.3" fill="#111827"/>
  <circle cx="17.5" cy="7.5" r="0.3" fill="#111827"/>
  
  <!-- Smile -->
  <path d="M14.5 9 Q16 9.5 17.5 9" stroke="#111827" stroke-width="0.3" fill="none"/>
  
  <!-- Glasses (optional) -->
  <circle cx="14.5" cy="7.5" r="1" fill="none" stroke="#374151" stroke-width="0.3"/>
  <circle cx="17.5" cy="7.5" r="1" fill="none" stroke="#374151" stroke-width="0.3"/>
  <path d="M15.5 7.5 L16.5 7.5" stroke="#374151" stroke-width="0.3"/>
  
  <!-- Shirt -->
  <rect x="13" y="11" width="6" height="4" rx="0.5" fill="#6b7280"/>
  
  <!-- Code symbols floating -->
  <text x="6" y="8" font-family="monospace" font-size="2" fill="#3b82f6">&lt;/&gt;</text>
  <text x="24" y="10" font-family="monospace" font-size="1.5" fill="#10b981">{}</text>
</svg>